<svg xmlns="http://www.w3.org/2000/svg" xmlns:xlink="http://www.w3.org/1999/xlink" data-name="Layer 1" width="1030.010009765625" height="729.8599853515625" style=""><rect id="backgroundrect" width="100%" height="100%" x="0" y="0" fill="none" stroke="none"/><defs><linearGradient id="a5312bde-8c7e-4767-9e17-08a43f21bf92" x1="0.49983447790145874" y1="0.9999707937240601" x2="0.49983447790145874" y2="-0.000007391483904939378"><stop offset="0" stop-color="gray" stop-opacity="0.25"/><stop offset="0.54" stop-color="gray" stop-opacity="0.12"/><stop offset="1" stop-color="gray" stop-opacity="0.1"/></linearGradient><linearGradient id="016d359d-0d48-4404-968f-1612e9b5c7a7" x1="376.5299987792969" y1="777.0599975585938" x2="376.5299987792969" y2="381.8500061035156" xlink:href="#a5312bde-8c7e-4767-9e17-08a43f21bf92"/></defs><title>static_assets</title><g class="currentLayer" style=""><title>Layer 1</title><ellipse cx="814.6599731445312" cy="585.219970703125" rx="211.36000061035156" ry="41.08000183105469" fill="#0d6efd" opacity="0.1" id="svg_1"/><g opacity="0.5" id="svg_2"><path d="M633.6200021362305,103.56000030517578 c-2.85,0.81 -6.34,2.92 -8.06,8.69 c-3.37,11.31 4.46,19 1.8800000000000001,30.79 a23,23 0 0 1 -4,8.64 c-3.15,4.27 -6.57,6.29 -9.89,9.28 a29.5,29.5 0 0 0 -8.69,14.27 a39.5,39.5 0 0 0 -0.39000000000000007,18.55 c1.18,5.12 3.19,8.85 4.95,13 a96,96 0 0 1 5.11,16.37 a39.87,39.87 0 0 1 1.12,8.32 a73.21,73.21 0 0 1 -1,11.12 l-4.79,33.42 a100.43,100.43 0 0 0 -1.31,13.21 a65.61,65.61 0 0 0 1.53,13.19 c1.6800000000000002,8.84 3.49,18 7.34,22.68 s10.41,3 14.44,-6.47 c3.83,-9.06 3.92,-21.15 7.3,-30.83 c5.33,-15.25 15.92,-17.3 21.8,-31.85 c5.640000000000001,-14 3.91,-31.08 6.77,-47 c2,-11.41 6.41,-21.81 9,-33.08 c3.72,-16.23 3.35,-33.08 0.38000000000000006,-45.56 a60.55,60.55 0 0 0 -14.18,-27.54 c-2.49,-2.75 -5.16,-5.2 -8.29,-5.45 c-3.33,-0.26 -6.24,3.93 -9.53,5.19 C641.3100021362304,103.99000030517578 637.4900021362305,102.46000030517578 633.6200021362305,103.56000030517578 z" fill="#0d6efd" id="svg_3"/><path d="M651.6500021362305,98.16000030517577 S646.0100021362305,242.50000030517577 622.2900021362304,327.6100003051758 " fill="none" stroke="#535461" stroke-miterlimit="10" stroke-width="2" id="svg_4"/><path d="M625.4200021362304,112.93000030517578 s25.35,23.08 20.54,67 " fill="none" stroke="#535461" stroke-miterlimit="10" stroke-width="2" id="svg_5"/><path d="M604.1500021362305,178.6100003051758 s41.61,8.37 38.52,33.26 " fill="none" stroke="#535461" stroke-miterlimit="10" stroke-width="2" id="svg_6"/><path d="M677.1800021362304,130.00000030517577 s-16.84,14.74 -31.84,56.49 " fill="none" stroke="#535461" stroke-miterlimit="10" stroke-width="2" id="svg_7"/><path d="M660.7300021362305,256.1800003051758 s-11.49,9 -20.71,-22.51 " fill="none" stroke="#535461" stroke-miterlimit="10" stroke-width="2" id="svg_8"/><path d="M611.1500021362305,274.5900003051758 s23.43,-3.06 25.59,-17.73 " fill="none" stroke="#535461" stroke-miterlimit="10" stroke-width="2" id="svg_9"/></g><path d="M690.2600021362305,6.750000305175774 c-5.8,0.8600000000000001 -12.78,3.55 -15.65,11.84 c-5.63,16.26 11.48,28.57 7.54,45.56 A25.53,25.53 0 0 1 675.0100021362305,76.40000030517578 c-6,5.91 -12.86,8.49 -19.36,12.5 s-13.25,10.32 -16.3,20 c-2.93,9.31 -1.6600000000000001,19.59 1.3900000000000001,27.27 s7.66,13.41 11.78,19.73 A133.69,133.69 0 0 1 665.0100021362305,180.6000003051758 A46.94,46.94 0 0 1 668.3300021362305,192.93000030517578 c0.53,5.2 -0.14,10.79 -0.81,16.26 L661.5700021362304,257.9300003051758 c-0.79,6.48 -1.59,13.06 -1.1400000000000001,19.3 c0.51,7.19 2.64,13.47 4.74,19.6 c4.52,13.22 9.36,27 17.89,34.28 s21.91,5.72 29.12,-7.82 c6.86,-12.89 5.6,-30.68 11.45,-44.53 c9.22,-21.83 30.9,-23.6 41.33,-44.32 c10,-19.88 4.41,-45.31 8.43,-68.41 c2.88,-16.55 10.68,-31.35 14.68,-47.64 c5.77,-23.47 3,-48.32 -4.62,-67 s-19.67,-32 -32.6,-42.23 c-5.48,-4.35 -11.29,-8.28 -17.8,-9 c-6.92,-0.77 -12.45,5.05 -19.1,6.52 C706.2100021362305,8.29000030517578 698.1300021362305,5.580000305175787 690.2600021362305,6.750000305175774 z" fill="#0d6efd" id="svg_10"/><path d="M726.9400021362304,0.9300003051757812 s5.46,211.89 -33.56,334.42 " fill="none" stroke="#535461" stroke-miterlimit="10" stroke-width="2" id="svg_11"/><path d="M674.3900021362305,19.610000305175788 s55.2,37 50.47,101.16 " fill="none" stroke="#535461" stroke-miterlimit="10" stroke-width="2" id="svg_12"/><path d="M638.1600021362304,113.78000030517578 s87.12,17.26 83.68,53.54 " fill="none" stroke="#535461" stroke-miterlimit="10" stroke-width="2" id="svg_13"/><path d="M783.5500021362304,50.85000030517577 s-33.11,19.71 -59.19,79.41 " fill="none" stroke="#535461" stroke-miterlimit="10" stroke-width="2" id="svg_14"/><path d="M764.4400021362304,234.7200003051758 s-22.7,12 -45.53,-35.61 " fill="none" stroke="#535461" stroke-miterlimit="10" stroke-width="2" id="svg_15"/><path d="M664.0100021362305,255.93000030517578 s48.13,-1.73 50.87,-23.08 " fill="none" stroke="#535461" stroke-miterlimit="10" stroke-width="2" id="svg_16"/><path d="M67.25000213623048,578.5900003051757 s8.38,11 -3.87,27.5 S41.01000213623047,636.6100003051757 45.12000213623048,646.9300003051758 c0,0 18.48,-30.73 33.52,-31.16 S83.80000213623046,597.0700003051758 67.25000213623048,578.5900003051757 z" fill="#0d6efd" id="svg_17"/><path d="M67.25000213623048,578.5900003051757 A13.57,13.57 0 0 1 69.01000213623047,582.0300003051758 c14.68,17.24 22.49,33.33 8.39,33.74 c-13.14,0.38000000000000006 -28.9,23.87 -32.68,29.81 a12.74,12.74 0 0 0 0.45,1.35 s18.48,-30.73 33.52,-31.16 S83.80000213623046,597.0700003051758 67.25000213623048,578.5900003051757 z" opacity="0.1" id="svg_18"/><path d="M82.83000213623046,592.5600003051758 c0,3.8600000000000003 -0.43000000000000005,7 -1,7 s-1,-3.13 -1,-7 s0.54,-2 1.07,-2 S82.83000213623046,588.7000003051758 82.83000213623046,592.5600003051758 z" fill="#ffd037" id="svg_19"/><path d="M88.18000213623046,597.1600003051758 c-3.39,1.85 -6.34,3 -6.59,2.49 s2.2800000000000002,-2.35 5.67,-4.19 s2.05,-0.5 2.31,0 S91.56000213623048,595.3100003051758 88.18000213623046,597.1600003051758 z" fill="#ffd037" id="svg_20"/><path d="M23.01000213623047,578.5900003051757 s-8.38,11 3.87,27.5 s22.35,30.51 18.26,40.83 c0,0 -18.48,-30.73 -33.52,-31.16 S6.440002136230476,597.0700003051758 23.01000213623047,578.5900003051757 z" fill="#0d6efd" id="svg_21"/><path d="M23.01000213623047,578.5900003051757 a13.57,13.57 0 0 0 -1.71,3.44 c-14.68,17.24 -22.49,33.33 -8.39,33.74 c13.14,0.38000000000000006 28.9,23.87 32.68,29.81 a12.74,12.74 0 0 1 -0.45,1.35 s-18.48,-30.73 -33.52,-31.16 S6.440002136230476,597.0700003051758 23.01000213623047,578.5900003051757 z" opacity="0.1" id="svg_22"/><path d="M7.410002136230474,592.5600003051758 c0,3.8600000000000003 0.43000000000000005,7 1,7 s1,-3.13 1,-7 s-0.54,-2 -1.07,-2 S7.410002136230474,588.7000003051758 7.410002136230474,592.5600003051758 z" fill="#ffd037" id="svg_23"/><path d="M2.060002136230466,597.1600003051758 c3.39,1.85 6.34,3 6.59,2.49 s-2.2800000000000002,-2.35 -5.67,-4.19 s-2.05,-0.5 -2.31,0 S-1.3199978637695295,595.3100003051758 2.060002136230466,597.1600003051758 z" fill="#ffd037" id="svg_24"/><path d="M10.080002136230462,645.4900003051757 s23.43,-0.7200000000000001 30.49,-5.75 s36,-11 37.79,-3 s35.21,40.11 8.76,40.32 s-61.46,-4.12 -68.51,-8.41 S10.080002136230462,645.4900003051757 10.080002136230462,645.4900003051757 z" fill="#a8a8a8" id="svg_25"/><path d="M87.59000213623048,674.2800003051758 c-26.45,0.21000000000000002 -61.46,-4.12 -68.51,-8.41 c-5.37,-3.27 -7.51,-15 -8.22,-20.41 l-0.78,0 s1.48,18.9 8.53,23.19 s42.06,8.63 68.51,8.41 c7.640000000000001,-0.06000000000000001 10.27,-2.7800000000000002 10.13,-6.8 C96.19000213623048,672.7200003051757 93.28000213623048,674.2400003051757 87.59000213623048,674.2800003051758 z" opacity="0.2" id="svg_26"/><path d="M982.3600021362304,574.0400003051758 a11.67,11.67 0 0 0 3.83,-5.78 c0.5,-2.3 -0.48000000000000004,-5.05 -2.68,-5.890000000000001 c-2.46,-0.9400000000000001 -5.09,0.7600000000000001 -7.08,2.49 s-4.28,3.6900000000000004 -6.890000000000001,3.3200000000000003 a10.48,10.48 0 0 0 3.24,-9.81 a4.1,4.1 0 0 0 -0.9,-2 c-1.37,-1.46 -3.84,-0.8300000000000001 -5.48,0.32000000000000006 c-5.2,3.66 -6.65,10.72 -6.68,17.08 c-0.52,-2.29 -0.08000000000000002,-4.68 -0.1,-7 s-0.6600000000000001,-5 -2.64,-6.22 a8,8 0 0 0 -4,-0.9500000000000001 c-2.34,-0.09000000000000002 -4.94,0.15000000000000002 -6.54,1.86 c-2,2.12 -1.47,5.69 0.26,8 s4.35,3.8 6.77,5.42 a15,15 0 0 1 4.84,4.61 a4.57,4.57 0 0 1 0.36000000000000004,0.8200000000000001 h14.65 A40.83,40.83 0 0 0 982.3600021362304,574.0400003051758 z" fill="#0d6efd" id="svg_27"/><path d="M146.73000213623047,480.32000030517577 c31.82,40.46 19.46,99.57 -0.7600000000000001,146.9 c-6.77,15.85 -14.43,32.62 -11.57,49.61 c3.49,20.78 22,36 41.52,44 c35.5,14.68 78,11.18 110.61,-9.11 c28.19,-17.54 48.38,-46.06 77.05,-62.8 c48,-28 109.06,-17.43 161.16,1.86 c36.86,13.65 77.16,31.41 113.79,17.14 c25.77,-10 43.59,-34.47 53.3,-60.37 c4.69,-12.51 8.09,-26 17,-36 c5.32,-5.890000000000001 12.26,-10.08 19.38,-13.6 c65,-32.21 147,-15 210.08,-50.68 c42.61,-24.12 69.89,-69.63 82,-117.08 s10.67,-97.21 7.6,-146.07 c-2.18,-34.73 -6.09,-71.8 -28.28,-98.61 c-23.47,-28.35 -63.76,-38.9 -100.17,-33.51 S830.0100021362305,136.69000030517577 801.0100021362305,159.31000030517578 c-36.29,28.27 -69.94,63.48 -114.5,74.94 c-30.34,7.8 -62.26,3.5300000000000002 -93.56,2.06 c-52.32,-2.47 -104.65,3 -156.68,9 c-49.81,5.76 -100,12.1 -147.43,28.3 c-33.58,11.47 -60.5,32.28 -92.21,46.82 c-20.67,9.48 -43.21,12.1 -62.77,24.17 c-24.11,14.870000000000001 -46.2,40.74 -40,71 C99.68000213623046,444.4100003051758 129.83000213623046,458.85000030517574 146.73000213623047,480.32000030517577 z" fill="#e1a0a7" opacity="0.1" id="svg_28" class="" fill-opacity="1"/><ellipse cx="552.3499755859375" cy="439.2200012207031" rx="427.6700134277344" ry="41.08000183105469" fill="#0d6efd" opacity="0.1" id="svg_29" class=""/><ellipse cx="223.66000366210938" cy="676.219970703125" rx="211.36000061035156" ry="41.08000183105469" fill="#0d6efd" opacity="0.1" id="svg_30" class=""/><path d="M439.7200021362305,426.4100003051758 l-3.35,4.87 s3.6500000000000004,4.87 4,5.48 s10.65,-0.30000000000000004 10.65,-0.30000000000000004 l0.91,-3.6500000000000004 l-1.52,-4.26 z" fill="#e6e6f0" id="svg_31"/><polygon points="327.09 423.67 320.39 424.88 324.65 433.11 329.22 435.54 333.48 438.58 334.7 435.24 331.65 428.84 327.09 423.67" fill="#fdc2cc" id="svg_32"/><path d="M436.6800021362304,344.52000030517576 s35.62,8.52 42.31,18 c0,0 6.09,5.18 0,14.61 s-14.61,30.75 -14.61,30.75 s-6.09,20.7 -8.52,22.22 s-16.44,2.74 -17.66,-3 c0,0 7.91,-12.48 7.91,-18.27 s13.09,-33.18 13.09,-33.18 s-29.83,-3.35 -39.27,-1.22 S424.20000213623047,341.1700003051758 436.6800021362304,344.52000030517576 z" fill="#565171" id="svg_33" class="" opacity="0"/><path d="M441.6800021362304,340.9485739135742 s35.62,8.52 42.31,18 c0,0 6.09,5.18 0,14.61 s-14.61,30.75 -14.61,30.75 s-6.09,20.7 -8.52,22.22 s-16.44,2.74 -17.66,-3 c0,0 7.91,-12.48 7.91,-18.27 s13.09,-33.18 13.09,-33.18 s-29.83,-3.35 -39.27,-1.22 S429.20000213623047,337.5985739135742 441.6800021362304,340.9485739135742 z" opacity="1" id="svg_34" class="" fill="#000000" fill-opacity="1"/><path d="M429.3700021362305,352.7400003051758 c-0.07,1.77 -0.26,3.7600000000000002 -0.53,5.9 c-1.9500000000000002,15.5 -8.3,38.55 -8.3,38.55 s-6.39,13.7 -8.22,22.53 s-14.31,11 -14.31,11 s-34.1,4 -41.1,2.44 s-18,4.57 -23.44,3.6500000000000004 s-8.83,-13.7 -8.83,-13.7 a66,66 0 0 0 27.4,-5.78 c14,-6.39 34.1,-3.35 34.1,-3.35 a11.45,11.45 0 0 0 7,-5.78 c2.13,-4.57 2.13,-32.27 1.52,-34.1 c-4,-12 -3.67,-19.7 -2.52,-24.19 a12.07,12.07 0 0 1 2.52,-5.34 z" fill="#000000" id="svg_35" class="" fill-opacity="1"/><path d="M429.3700021362305,352.7400003051758 c-0.07,1.77 -0.26,3.7600000000000002 -0.53,5.9 c-3.06,0.24000000000000002 -11.64,0.47000000000000003 -18,-3.46 c-6,-3.68 -14.73,-4.93 -18.66,-5.32 a12.07,12.07 0 0 1 2.52,-5.34 z" opacity="0.1" id="svg_36"/><path d="M433.5800021362305,348.9300003051758 c-1.42,4 -3.6,8.69 -3.6,8.69 s-11.26,1.52 -19.18,-3.35 s-20.7,-5.48 -20.7,-5.48 c2.07,-1.27 3.47,-5.13 4.34,-8.51 a53.93,53.93 0 0 0 1.1400000000000001,-5.8 s37.44,7.61 39,8.83 C435.16000213623045,343.7900003051758 434.54000213623044,346.21000030517575 433.5800021362305,348.9300003051758 z" fill="#e6e6f0" id="svg_37"/><path d="M500.30000213623043,220.62000030517578 L454.89000213623046,248.0300003051758 l-4.51,2.72 V237.3600003051758 l3.13,-1.5 l38.27,-18.29 s1.83,-33.18 6.7,-28 S500.30000213623043,220.62000030517578 500.30000213623043,220.62000030517578 z" fill="#fdc2cc" id="svg_38"/><path d="M454.89000213623046,248.0300003051758 l-4.51,2.72 V237.3600003051758 l3.13,-1.5 A98.54,98.54 0 0 0 454.89000213623046,248.0300003051758 z" opacity="0.1" id="svg_39"/><path d="M419.9400021362305,252.93000030517578 l32.57,-18.87 s0.6100000000000001,18.27 4.26,21 c0,0 -13.39,4 -18.57,12.48 z" fill="#b45181" id="svg_40"/><path d="M419.9400021362305,252.93000030517578 l32.57,-18.87 s0.6100000000000001,18.27 4.26,21 c0,0 -13.39,4 -18.57,12.48 z" opacity="0.91" id="svg_41" class="" fill="#1a1aeb" fill-opacity="1"/><path d="M500.01000213623047,269.02000030517576 s-15.49,6.75 -25.75,9.23 a20.22,20.22 0 0 1 -7.13,0.8200000000000001 c-7,-1.22 1.83,-10 1.83,-10 l3.68,-0.5700000000000001 l19.76,-3.08 s2.13,-30.44 5.78,-28 S500.01000213623047,269.02000030517576 500.01000213623047,269.02000030517576 z" fill="#fdc2cc" id="svg_42"/><path d="M434.55000213623043,241.62000030517578 s-13.09,9.74 -8.22,21.92 s-25.27,-7.3100000000000005 -25.27,-7.3100000000000005 s9.74,-14.61 11.870000000000001,-25.57 S434.55000213623043,241.62000030517578 434.55000213623043,241.62000030517578 z" fill="#fdc2cc" id="svg_43"/><path d="M433.5800021362305,348.9300003051758 a69,69 0 0 0 -17.6,-4.1 c-8.8,-1 -16.86,-2.6900000000000004 -21.53,-4.55 a53.93,53.93 0 0 0 1.1400000000000001,-5.8 s37.44,7.61 39,8.83 C435.16000213623045,343.7900003051758 434.54000213623044,346.21000030517575 433.5800021362305,348.9300003051758 z" opacity="0.1" id="svg_44"/><path d="M474.2500021362305,278.2500003051758 a20.22,20.22 0 0 1 -7.13,0.8200000000000001 c-7,-1.22 1.83,-10 1.83,-10 l3.68,-0.5700000000000001 C474.17000213623044,270.8700003051758 475.7400021362305,274.57000030517577 474.2500021362305,278.2500003051758 z" opacity="0.1" id="svg_45"/><path d="M413.2400021362305,247.1000003051758 s-11.870000000000001,-0.30000000000000004 -16.13,4.57 s-3.35,18 -3.35,18 s-0.8900000000000001,26.29 5.78,41 a2,2 0 0 1 0.07,1.51 c-0.07,0.18000000000000002 -0.07,0.07 -0.07,0.07 s-4.26,19.18 -8.52,22.53 s9.13,7.3100000000000005 25,9.13 s22.22,6.39 22.22,6.39 s2.74,-3 3,-9.74 S437.01000213623047,284.8500003051758 437.01000213623047,284.8500003051758 s16.74,4.26 26.79,-0.91 c0,0 4.57,2.44 8.83,-4.26 s-3,-14 -3,-14 s-6.7,6.7 -25.27,-2.13 S419.01000213623047,246.8000003051758 413.2400021362305,247.1000003051758 z" fill="#1a1aeb" id="svg_46" class="" fill-opacity="1"/><path d="M322.22000213623045,424.2800003051758 h-3.6500000000000004 v5.18 l3.6500000000000004,8.22 s4.87,0.91 5.18,0.91 s4.26,-0.91 4.26,-0.91 l1.22,-2.13 S319.4800021362305,430.36000030517573 322.22000213623045,424.2800003051758 z" fill="#e6e6f0" id="svg_47"/><path d="M436.6800021362304,429.1500003051758 l-5.48,12.18 l23.14,11 l18.27,0.6100000000000001 s1.52,-4.26 -4.57,-6.39 l-4.87,-0.91 s-6.39,-11.57 -7,-17 c0,0 -6.09,1.22 -7,5.78 C449.16000213623045,434.32000030517577 440.64000213623046,438.58000030517576 436.6800021362304,429.1500003051758 z" fill="#000000" id="svg_48" class="" fill-opacity="1" opacity="1"/><path d="M319.4800021362305,423.0600003051758 l-1.86,1.52 l-8.18,6.7 l18.87,25 s10.65,4.57 15.53,0 c0,0 3,-3 -3.6500000000000004,-5.48 c0,0 -5.18,0.91 -5.18,-4.26 s1.22,-10.65 3,-11.870000000000001 c0,0 -4.57,-1.52 -5.78,-0.30000000000000004 a19.32,19.32 0 0 0 -2.44,3.35 S318.8700021362305,433.4100003051758 319.4800021362305,423.0600003051758 z" fill="#b45181" id="svg_49"/><path d="M412.33000213623046,231.27000030517576 a37,37 0 0 1 -1.22,4.5600000000000005 a15.83,15.83 0 0 0 20.27,8.71 a25.18,25.18 0 0 1 2.5700000000000003,-2.31 S414.46000213623046,220.31000030517578 412.33000213623046,231.27000030517576 z" opacity="0.1" id="svg_50"/><path d="M410.65000213623046,271.9300003051758 s9.44,12.48 23.14,12.79 " opacity="0.1" id="svg_51"/><g opacity="0.1" id="svg_52"><path d="M467.0700021362304,284.1500003051758 a3.44,3.44 0 0 1 -0.56,-0.21000000000000002 q-0.44000000000000006,0.23 -0.9,0.43000000000000005 A5.69,5.69 0 0 0 467.0700021362304,284.1500003051758 z" id="svg_53"/><path d="M470.3100021362304,266.9300003051758 a15.06,15.06 0 0 0 -1.06,-1.22 s-2,2 -6.94,2.38 A16.8,16.8 0 0 0 470.3100021362304,266.9300003051758 z" id="svg_54"/><path d="M439.7200021362305,284.8500003051758 l0.06000000000000001,0.6500000000000001 a60.46,60.46 0 0 0 12.18,1 A63.38,63.38 0 0 1 439.7200021362305,284.8500003051758 z" id="svg_55"/><path d="M418.72000213623045,343.9300003051758 c-15.83,-1.83 -29.22,-5.78 -25,-9.13 s8.52,-22.53 8.52,-22.53 s0,0.11000000000000001 0.07,-0.07 a2,2 0 0 0 -0.07,-1.51 c-6.67,-14.75 -5.78,-41 -5.78,-41 s-0.91,-13.09 3.35,-18 c3.17,-3.63 10.56,-4.38 14.13,-4.53 a6.47,6.47 0 0 0 -1,0 s-11.870000000000001,-0.30000000000000004 -16.13,4.57 s-3.35,18 -3.35,18 s-0.8900000000000001,26.29 5.78,41 a2,2 0 0 1 0.07,1.51 c-0.07,0.18000000000000002 -0.07,0.07 -0.07,0.07 S395.01000213623047,331.4300003051758 390.71000213623046,334.7800003051758 s9.13,7.3100000000000005 25,9.13 s22.22,6.39 22.22,6.39 a7.8,7.8 0 0 0 0.8400000000000001,-1.23 C435.6800021362304,347.58000030517576 429.3200021362304,345.13000030517577 418.72000213623045,343.9300003051758 z" id="svg_56"/></g><circle cx="426.3299865722656" cy="229.13999938964844" r="15.829999923706055" fill="#fdc2cc" id="svg_57"/><path d="M448.8600021362305,222.06000030517578 c-1.31,3.2800000000000002 -5.22,4.52 -8.65,5.37 c-4.9,1.2 -10.18,2.38 -14.870000000000001,0.52 a3.25,3.25 0 0 0 -2,-0.39000000000000007 a2.66,2.66 0 0 0 -1.32,1.15 c-5.17,7.36 -4.33,17.17 -5.67,26.07 c-0.42000000000000004,2.77 -1.13,5.63 -3,7.7 c-3.64,4 -10.51,3.85 -13.86,8.1 c-2.21,2.8 -2.23,6.69 -2.21,10.26 q0,5.71 -0.1,11.43 c-0.06000000000000001,2.5 -0.18000000000000002,5.09 -1.31,7.3100000000000005 c-1.92,3.7600000000000002 -6.2,5.55 -10.15,7 c-2.46,0.92 -5,1.85 -7.640000000000001,1.6 s-5.28,-2 -5.62,-4.640000000000001 c-0.47000000000000003,-3.58 3.22,-6.08 5.76,-8.66 c4.06,-4.11 5.73,-10.09 5.88,-15.870000000000001 a17,17 0 0 0 -1,-6.87 c-0.93,-2.27 -2.59,-4.18 -3.59,-6.42 c-3.08,-6.9 0.7200000000000001,-14.88 5.27,-20.92 s10.14,-11.93 11.11,-19.42 a26.93,26.93 0 0 1 0.6900000000000002,-4.8100000000000005 c0.7000000000000001,-2.18 2.36,-8.2 4.19,-9.58 a21.77,21.77 0 0 1 10,-4.16 c2.81,-0.41000000000000003 5.68,-0.26 8.47,-0.8 c3.26,-0.6300000000000001 6.29,-2.18 9.55,-2.7600000000000002 c7.05,-1.25 14.7,6.94 17.79,13.4 C447.4300021362304,218.6500003051758 449.66000213623045,220.0500003051758 448.8600021362305,222.06000030517578 z" opacity="0.1" id="svg_58"/><path d="M448.8600021362305,221.45000030517576 c-1.31,3.2800000000000002 -5.22,4.52 -8.65,5.37 c-4.9,1.2 -10.18,2.38 -14.870000000000001,0.52 a3.25,3.25 0 0 0 -2,-0.39000000000000007 a2.66,2.66 0 0 0 -1.32,1.15 c-5.17,7.36 -4.33,17.17 -5.67,26.07 c-0.42000000000000004,2.77 -1.13,5.63 -3,7.7 c-3.64,4 -10.51,3.85 -13.86,8.1 c-2.21,2.8 -2.23,6.69 -2.21,10.26 q0,5.71 -0.1,11.43 c-0.06000000000000001,2.5 -0.18000000000000002,5.09 -1.31,7.3100000000000005 c-1.92,3.7600000000000002 -6.2,5.55 -10.15,7 c-2.46,0.92 -5,1.85 -7.640000000000001,1.6 s-5.28,-2 -5.62,-4.640000000000001 c-0.47000000000000003,-3.58 3.22,-6.08 5.76,-8.66 c4.06,-4.11 5.73,-10.09 5.88,-15.870000000000001 a17,17 0 0 0 -1,-6.87 c-0.93,-2.27 -2.59,-4.18 -3.59,-6.42 c-3.08,-6.9 0.7200000000000001,-14.88 5.27,-20.92 s10.14,-11.93 11.11,-19.42 a26.93,26.93 0 0 1 0.6900000000000002,-4.8100000000000005 c0.7000000000000001,-2.18 2.36,-8.2 4.19,-9.58 a21.77,21.77 0 0 1 10,-4.16 c2.81,-0.41000000000000003 5.68,-0.26 8.47,-0.8 c3.26,-0.6300000000000001 6.29,-2.18 9.55,-2.7600000000000002 c7.05,-1.25 14.7,6.94 17.79,13.4 C447.4300021362304,218.0400003051758 449.66000213623045,219.44000030517577 448.8600021362305,221.45000030517576 z" fill="#e7e767" id="svg_59" class="" fill-opacity="1"/><path d="M500.01000213623047,191.02000030517576 H763.1800021362304 V454.1700003051758 H500.01000213623047 z" fill="#f7df1e" id="svg_60"/><path d="M569.2200021362305,410.9300003051758 l20.14,-12.19 c3.89,6.890000000000001 7.42,12.72 15.9,12.72 c8.13,0 13.25,-3.18 13.25,-15.54 V311.83000030517576 h24.73 v84.43 c0,25.61 -15,37.27 -36.92,37.27 c-19.78,0 -31.26,-10.25 -37.09,-22.61 m87.44,-2.6500000000000004 l20.13,-11.66 c5.3,8.66 12.19,15 24.38,15 c10.25,0 16.78,-5.12 16.78,-12.19 c0,-8.48 -6.71,-11.48 -18,-16.43 l-6.18,-2.6500000000000004 c-17.84,-7.59 -29.68,-17.13 -29.68,-37.27 c0,-18.55 14.13,-32.68 36.21,-32.68 c15.72,0 27,5.48 35.15,19.78 l-19.25,12.37 c-4.24,-7.6 -8.83,-10.6 -15.9,-10.6 c-7.24,0 -11.84,4.59 -11.84,10.6 c0,7.42 4.59,10.42 15.19,15 l6.18,2.6500000000000004 c21,9 32.86,18.19 32.86,38.86 c0,22.26 -17.49,34.45 -41,34.45 c-23,0 -37.8,-11 -45,-25.26 " id="svg_61"/><path d="M878.6200021362305,600.2100003051758 S868.3500021362305,600.9300003051758 862.0100021362305,589.9300003051758 a36.88,36.88 0 0 0 -4.37,-6.21 a21,21 0 0 1 -3.07,-11.15 c0.35000000000000003,-8.15 -8.15,-52.79 -8.15,-52.79 s1.06,-17 -7.44,-27.63 c-5.6,-7 -13.65,-27 -18.5,-39.92 a2.67,2.67 0 0 0 1.1400000000000001,0.6000000000000001 l-0.2,-1.11 l0.2,0 L819.1100021362305,437.9300003051758 a62.88,62.88 0 0 1 -9.16,-13.88 l0.5700000000000001,-0.12000000000000001 l7.52,-1.58 s12.22,-17.37 13,-25.91 l1,0 h1.4100000000000001 a294,294 0 0 1 33.86,1.77 h0 c0,-0.05000000000000001 -0.08000000000000002,-0.27 -0.18000000000000002,-0.6200000000000001 h0 a42.5,42.5 0 0 1 -1.1,-5.23 l0.7000000000000001,0 l7,-0.46 s24.09,-26.92 15.23,-31.88 s-18.07,22.32 -18.07,22.32 l-3,0.54 l-0.81,0.15000000000000002 c0.08000000000000002,-0.12000000000000001 0.16000000000000003,-0.23 0.25,-0.3400000000000001 S828.0100021362305,380.9300003051758 821.9400021362304,371.3500003051758 c0,0 -17.36,-13.82 -18.07,-23 a10.39,10.39 0 0 0 -6.24,-8.84 a13.620000000000001,13.620000000000001 0 0 0 -6.890000000000001,-1.29 l-8.13,0.56 l0.5700000000000001,1 l-0.23,0 a27.35,27.35 0 0 1 -1.28,-3.6 l0.17,0 c-0.06000000000000001,-0.25 -0.11000000000000001,-0.5 -0.16000000000000003,-0.7500000000000001 a19.13,19.13 0 0 0 14.09,-23.56 a7.65,7.65 0 0 0 2.39,-0.07 c3,-0.6100000000000001 5.11,-3.6500000000000004 5.19,-6.69 c0,-0.2 0,-0.4 0,-0.5900000000000001 c0,0 0,-0.08000000000000002 0,-0.12000000000000001 a10.28,10.28 0 0 0 -3.95,-7.9 c-1.62,-1.35 -3.56,-2.31 -5,-3.81 c-1.75,-1.79 -2.71,-4.19 -4.07,-6.3 a18.7,18.7 0 0 0 -9.6,-7.47 c-2.93,-1 -6.53,-1.1 -8.78,1 c-1.1600000000000001,1.09 -1.83,2.67 -3.13,3.59 c-1.87,1.34 -4.41,0.9400000000000001 -6.7,1.21 a12.78,12.78 0 0 0 -9.63,7.21 a16.61,16.61 0 0 0 -1.58,7.62 a20.35,20.35 0 0 0 0.6400000000000001,5.35 c0.44000000000000006,1.7400000000000002 1.09,3.42 1.57,5.16 c1,3.6 1.23,7.39 2.38,10.94 a13.77,13.77 0 0 0 4.43,6.73 l-0.3400000000000001,1.46 c-0.22000000000000003,0 -5.74,1.23 -9.55,9.56 c-3,6.57 -13.21,13.35 -17.7,16.09 a7.38,7.38 0 0 0 -3.34,4.640000000000001 a24.1,24.1 0 0 0 -0.5700000000000001,5.890000000000001 c-0.08000000000000002,4.27 0.81,10.18 4.24,17.67 c7.79,17 13.46,24.44 13.46,24.44 s0.43000000000000005,5.21 0.46,10.7 c0,4.09 -0.30000000000000004,8.16 -1.17,10.2 c-0.7400000000000001,1.7200000000000002 -1,6.11 -0.9400000000000001,11.13 c0,9.620000000000001 0.9400000000000001,22.17 0.9400000000000001,22.17 s2.71,0.52 6.9,1.13 l2.6100000000000003,45.92 a22.08,22.08 0 0 1 -5,15.34 a33.94,33.94 0 0 1 -6.29,6 c-7.44,5.3100000000000005 -23.38,61.29 -23.38,61.29 s0.78,0 2.06,0.15000000000000002 l-4.9,13.67 s19.58,15 31.49,10.9 a11.54,11.54 0 0 1 4,-0.56 c2.35,0 7.38,-1.86 4.58,-4.3100000000000005 a181.52,181.52 0 0 1 -15.27,-15.88 a8.12,8.12 0 0 1 1.1,0.6500000000000001 v-0.11000000000000001 l0.17,0.11000000000000001 s0,-0.55 0.13,-1.45 l-0.17,-0.06000000000000001 c0.36000000000000004,-3.68 1.5,-13 3.7600000000000002,-14.08 c2.83,-1.42 23.74,-42.87 23.74,-42.87 l20.9,-53.85 s16.65,28.7 30.82,33.65 v12 s7.79,35.43 10.63,39.32 s0,19.48 0,19.48 a9.71,9.71 0 0 0 1.9100000000000001,1.6800000000000002 l-2.27,12.84 s16.3,-0.7100000000000001 43.93,7.79 C876.8500021362305,610.4800003051757 887.4800021362305,605.8800003051758 878.6200021362305,600.2100003051758 zM813.4400021362304,414.9300003051758 l-3.45,0.8600000000000001 l-0.6800000000000002,0.17 c-0.07,-0.43000000000000005 -0.12000000000000001,-0.6800000000000002 -0.12000000000000001,-0.6800000000000002 a7,7 0 0 1 -2.51,0.6100000000000001 a46.15,46.15 0 0 1 -2.1,-11.95 a80.52,80.52 0 0 1 -2.11,-14.8 c0,-2.58 0.43000000000000005,-4.83 1.4,-6.1 l1.15,0.09000000000000002 l0.8,0.7600000000000001 l0.06000000000000001,0.05000000000000001 l0.41000000000000003,0.37000000000000005 h0 l0.43000000000000005,0.38000000000000006 l0.07,0.06000000000000001 l0.46,0.41000000000000003 l0.08000000000000002,0.07 l0.47000000000000003,0.4 l0,0 l0.53,0.44000000000000006 l0.12000000000000001,0.1 l0.56,0.45 l0,0 l0.55,0.44000000000000006 l0.13,0.1 l0.6100000000000001,0.46 l0.13,0.09000000000000002 l0.5800000000000001,0.43000000000000005 l0.1,0.07 l0.6600000000000001,0.47000000000000003 l0.16000000000000003,0.11000000000000001 l0.7000000000000001,0.48000000000000004 l0.06000000000000001,0 l0.6800000000000002,0.45 l0.16000000000000003,0.11000000000000001 l0.7300000000000001,0.47000000000000003 l0.16000000000000003,0.1 l0.6800000000000002,0.42000000000000004 l0.13,0.08000000000000002 l0.78,0.46 l0.19000000000000003,0.11000000000000001 l0.81,0.45 l0.06000000000000001,0 l0.79,0.42000000000000004 l0.19000000000000003,0.1 l0.8400000000000001,0.42000000000000004 l0.17,0.08000000000000002 l0.78,0.36000000000000004 l0.15000000000000002,0.07 l0.8800000000000001,0.38000000000000006 l0.21000000000000002,0.09000000000000002 l0.91,0.37000000000000005 h0 C816.3400021362305,400.4300003051758 813.4400021362304,414.9300003051758 813.4400021362304,414.9300003051758 z" fill="url(#a5312bde-8c7e-4767-9e17-08a43f21bf92)" id="svg_62"/><path d="M726.0600021362304,583.0900003051757 l-6.57,18.33 s18,13.8 29.7,10.94 a32.69,32.69 0 0 1 5.37,-0.8700000000000001 c2.42,-0.18000000000000002 6.59,-1.9500000000000002 4,-4.19 c-8.3,-7.26 -19.37,-20.75 -19.37,-20.75 z" fill="#000000" id="svg_63" class="" fill-opacity="1"/><path d="M835.3500021362305,581.3600003051757 l-3.11,17.64 s15.91,-0.6900000000000002 42.89,7.61 c0,0 10.38,-4.5 1.73,-10 c0,0 -10,0.6900000000000002 -16.25,-10 s-10,-9.34 -10,-9.34 z" fill="#000000" id="svg_64" class="" fill-opacity="1"/><path d="M753.0100021362305,453.4000003051758 l3,53.68 a22.2,22.2 0 0 1 -5.29,15.7 a32.54,32.54 0 0 1 -5.71,5.33 c-7.26,5.19 -22.83,59.83 -22.83,59.83 s17.64,1 22.48,4.5 c0,0 1,-13.83 3.8,-15.22 s23.17,-41.85 23.17,-41.85 l20.41,-52.57 s16.25,28 30.09,32.86 v11.76 s7.61,34.59 10.38,38.39 s0,19 0,19 s8,10 26.28,-0.6900000000000002 c0,0 -5.88,-6.57 -5.53,-14.53 s-8,-51.53 -8,-51.53 s1,-16.6 -7.26,-27 S816.0100021362305,440.9300003051758 816.0100021362305,440.9300003051758 l-9.52,-20.48 z" fill="#ffffff" id="svg_65" class="" fill-opacity="1"/><g opacity="0.1" id="svg_66"><path d="M725.5400021362304,587.9300003051758 s15.56,-54.64 22.83,-59.83 a33,33 0 0 0 6,-5.68 a22,22 0 0 0 5,-15.34 l-3.05,-53.69 l51,-31.44 l-0.6900000000000002,-1.49 L753.2100021362305,453.4000003051758 l3.05,53.69 a22,22 0 0 1 -5,15.34 a33,33 0 0 1 -6,5.68 C738.0100021362305,533.2900003051758 722.4300021362304,587.9300003051758 722.4300021362304,587.9300003051758 s17.64,1 22.48,4.5 c0,0 0,-0.54 0.13,-1.4100000000000001 C738.2300021362305,588.6800003051758 725.5400021362304,587.9300003051758 725.5400021362304,587.9300003051758 z" id="svg_67"/><path d="M835.8700021362305,584.8200003051758 s2.77,-15.22 0,-19 s-10.38,-38.39 -10.38,-38.39 V515.6500003051758 c-13.83,-4.84 -30.09,-32.86 -30.09,-32.86 L794.2000021362305,485.9300003051758 c4.69,7.44 17.2,25.9 28.19,29.74 v11.76 s7.61,34.59 10.38,38.39 s0,19 0,19 s3.8600000000000003,4.86 12.38,4.2 C838.7800021362305,588.4900003051757 835.8700021362305,584.8200003051758 835.8700021362305,584.8200003051758 z" id="svg_68"/></g><path d="M872.0100021362305,393.2200003051758 l-6.79,0.45 l-3.58,0.24000000000000002 v-8.65 l4.7,-0.8500000000000001 l2.91,-0.53 s9,-26.63 17.64,-21.79 S872.0100021362305,393.2200003051758 872.0100021362305,393.2200003051758 z" fill="#714b4f" id="svg_69"/><path d="M763.0700021362304,321.9300003051758 s-4.5,17.29 -5.88,28 s32.16,2.08 32.16,2.08 s-12.8,-15.56 -5.53,-23.86 z" fill="#714b4f" id="svg_70"/><path d="M799.3800021362305,393.9300003051758 l0.6900000000000002,6.57 l-10.72,-0.6900000000000002 l-10.72,-9.34 L767.9100021362304,360.3700003051758 L761.0100021362305,349.64000030517576 l-5.19,-6.57 l2.08,-8 s0.9500000000000001,0.8300000000000001 2.55,2.05 c5.27,4 17.62,12.41 26.65,10.09 a10.76,10.76 0 0 0 1.23,-0.39000000000000007 l13.49,23.17 z" fill="#4141e8" id="svg_71" class="" fill-opacity="1"/><path d="M760.6500021362305,333.0400003051758 s-5.53,1 -9.34,9.34 c-2.92,6.38 -12.8,13 -17.21,15.67 a7.38,7.38 0 0 0 -3.35,4.66 c-0.8900000000000001,3.94 -1.23,11.29 3.6100000000000003,21.86 c7.61,16.6 13.14,23.86 13.14,23.86 s1.3800000000000001,16.6 -0.6900000000000002,21.44 s0,31.47 0,31.47 s36.31,6.92 48.42,0 s10.38,-33.55 10.38,-33.55 s11.41,24.21 15.56,24.9 l-2.42,-13.49 s-13.49,-14.53 -14.18,-33.2 c0,0 -4.15,-16.95 -0.6900000000000002,-21.44 c0,0 58.45,4.84 61.91,0.6900000000000002 c0,0 -38.39,-1.73 -44.27,-11.07 c0,0 -16.95,-13.49 -17.64,-22.48 a9.94,9.94 0 0 0 -5.19,-8.15 a13.54,13.54 0 0 0 -7.75,-1.73 l-7.8100000000000005,0.54 s13.49,23.86 12.8,27 s0.6900000000000002,28.36 0.6900000000000002,28.36 S781.0100021362305,364.1700003051758 774.1400021362305,360.3700003051758 S759.2600021362305,340.9300003051758 759.2600021362305,340.9300003051758 l1.3800000000000001,-7.9 " opacity="0.1" id="svg_72"/><path d="M799.3800021362305,393.9300003051758 l0.6900000000000002,6.57 l-10.72,-0.6900000000000002 l-10.72,-9.34 L767.9100021362304,360.3700003051758 L761.0100021362305,349.64000030517576 l-5.19,-6.57 l2.08,-8 s0.9500000000000001,0.8300000000000001 2.55,2.05 l-0.48000000000000004,2.73 s8,15.620000000000001 14.870000000000001,19.43 s22.48,37.35 22.48,37.35 s-1.3800000000000001,-25.25 -0.6900000000000002,-28.36 c0.47000000000000003,-2.11 -5.59,-13.77 -9.53,-21.06 a10.76,10.76 0 0 0 1.23,-0.39000000000000007 l13.49,23.17 z" opacity="0.1" id="svg_73"/><path d="M865.2200021362305,393.6700003051758 l-3.58,0.24000000000000002 v-8.65 l4.7,-0.8500000000000001 C864.7000021362305,386.58000030517576 864.7600021362305,390.4200003051758 865.2200021362305,393.6700003051758 z" opacity="0.1" id="svg_74"/><path d="M760.6500021362305,332.01000030517577 s-5.53,1 -9.34,9.34 c-2.92,6.38 -12.8,13 -17.21,15.67 a7.38,7.38 0 0 0 -3.35,4.66 c-0.8900000000000001,3.94 -1.23,11.29 3.6100000000000003,21.86 c7.61,16.6 13.14,23.86 13.14,23.86 s1.3800000000000001,16.6 -0.6900000000000002,21.44 s0,31.47 0,31.47 s36.31,6.92 48.42,0 s10.38,-33.55 10.38,-33.55 S817.0100021362305,450.9300003051758 821.1700021362304,451.6700003051758 l-2.42,-13.49 s-13.49,-14.53 -14.18,-33.2 c0,0 -4.15,-16.95 -0.6900000000000002,-21.44 c0,0 13.49,14.53 28.71,14.18 a286.36,286.36 0 0 1 33.2,1.73 s-3.46,-11.07 0,-15.22 c0,0 -38.39,-1.73 -44.27,-11.07 c0,0 -16.95,-13.49 -17.64,-22.48 a9.94,9.94 0 0 0 -5.19,-8.15 a13.54,13.54 0 0 0 -7.75,-1.73 l-7.8100000000000005,0.54 s13.49,23.86 12.8,27 s0.6900000000000002,28.36 0.6900000000000002,28.36 S781.0100021362305,363.13000030517577 774.1400021362305,359.33000030517576 S759.2600021362305,339.9300003051758 759.2600021362305,339.9300003051758 l1.3800000000000001,-7.9 " fill="#000000" id="svg_75" class="" fill-opacity="1"/><path d="M753.0100021362305,368.32000030517577 s8.3,28 13.14,31.47 s34.24,21.1 42.89,16.95 c0,0 2.08,10.38 -1,12.8 c0,0 -32.25,-1.26 -32.51,-1.3800000000000001 c0,0 -21.1,-2.77 -24.56,-13.14 s-7.61,-28 -7.61,-28 z" opacity="0.1" id="svg_76"/><ellipse cx="797.3099975585938" cy="398.239990234375" rx="1.2100000381469727" ry="1.7300000190734863" fill="#ba7855" id="svg_77"/><ellipse cx="800.760009765625" cy="410.3399963378906" rx="1.2100000381469727" ry="1.7300000190734863" fill="#ba7855" id="svg_78"/><g opacity="0.1" id="svg_79"><path d="M749.2400021362305,459.9300003051758 s-2.08,-26.63 0,-31.47 s0.6900000000000002,-21.44 0.6900000000000002,-21.44 s-5.53,-7.26 -13.14,-23.86 c-4.85,-10.57 -4.5,-17.92 -3.6100000000000003,-21.86 a7.38,7.38 0 0 1 3.35,-4.66 c4.41,-2.7 14.28,-9.29 17.21,-15.67 c2.15,-4.68 4.84,-7.05 6.78,-8.23 l0.13,-0.7600000000000001 s-5.53,1 -9.34,9.34 c-2.92,6.38 -12.8,13 -17.21,15.67 a7.38,7.38 0 0 0 -3.35,4.66 c-0.8900000000000001,3.94 -1.23,11.29 3.6100000000000003,21.86 c7.61,16.6 13.14,23.86 13.14,23.86 s1.3800000000000001,16.6 -0.6900000000000002,21.44 s0,31.47 0,31.47 s25.94,4.94 41.28,2.29 C772.6000021362305,464.4200003051758 749.2400021362305,459.9300003051758 749.2400021362305,459.9300003051758 z" id="svg_80"/><path d="M795.9200021362304,368.32000030517577 c-0.47000000000000003,2.13 0,14.66 0.39000000000000007,22.34 c1.6700000000000002,3.41 2.72,5.68 2.72,5.68 s-1.3800000000000001,-25.25 -0.6900000000000002,-28.36 c0.6600000000000001,-3 -11.49,-24.66 -12.7,-26.8 l-2.52,0.17 S796.6200021362305,365.21000030517575 795.9200021362304,368.32000030517577 z" id="svg_81"/><path d="M835.0100021362305,397.3700003051758 c-15.22,0.35000000000000003 -28.71,-14.18 -28.71,-14.18 a5.54,5.54 0 0 0 -0.8700000000000001,1.87 c4,3.72 15,12.93 27.16,12.65 a286.36,286.36 0 0 1 33.2,1.73 s-0.07,-0.23 -0.18000000000000002,-0.6200000000000001 A275.32,275.32 0 0 0 835.0100021362305,397.3700003051758 z" id="svg_82"/><path d="M808.0100021362305,426.4200003051758 s0.14,2.16 0.06000000000000001,5.4 c3.6,7.14 10.15,19.35 13.08,19.84 l-0.51,-2.84 C815.6100021362305,442.50000030517583 808.0100021362305,426.4200003051758 808.0100021362305,426.4200003051758 z" id="svg_83"/></g><path d="M817.7100021362305,422.9300003051758 l-7.35,1.55 l-5.8,1.22 l3.11,-8.65 l2.17,-0.54 l3.37,-0.8400000000000001 s4.84,-24.21 14.53,-22.48 S817.7100021362305,422.9300003051758 817.7100021362305,422.9300003051758 z" fill="#714b4f" id="svg_84"/><path d="M810.3700021362305,424.51000030517577 l-5.8,1.22 l3.11,-8.65 l2.17,-0.54 A34.54,34.54 0 0 1 810.3700021362305,424.51000030517577 z" opacity="0.1" id="svg_85"/><path d="M753.0100021362305,367.63000030517577 s8.3,28 13.14,31.47 s34.24,21.1 42.89,16.95 c0,0 2.08,10.38 -1,12.8 c0,0 -32.25,-1.26 -32.51,-1.3800000000000001 c0,0 -21.1,-2.77 -24.56,-13.14 s-7.61,-28 -7.61,-28 z" fill="#000000" id="svg_86" class="" fill-opacity="1"/><path d="M763.4100021362304,322.6700003051758 s-0.7000000000000001,2.71 -1.6400000000000001,6.65 a18.67,18.67 0 0 0 20.61,9.5 c-0.8300000000000001,-3.55 -0.6500000000000001,-7.14 1.78,-9.92 z" opacity="0.1" id="svg_87" class=""/><circle cx="777.9400024414062" cy="319.8999938964844" r="18.68000030517578" fill="#714b4f" id="svg_88" class="selected"/><path d="M794.1600021362304,314.76000030517577 a10,10 0 0 0 4.16,0.26 a6.85,6.85 0 0 0 5.06,-6.53 a10,10 0 0 0 -3.85,-7.71 c-1.58,-1.32 -3.47,-2.25 -4.92,-3.72 c-1.71,-1.75 -2.6500000000000004,-4.09 -4,-6.15 a18.25,18.25 0 0 0 -9.37,-7.29 c-2.8600000000000003,-1 -6.37,-1.08 -8.57,1 c-1.13,1.07 -1.79,2.6 -3.05,3.51 c-1.83,1.3 -4.3100000000000005,0.92 -6.54,1.18 a12.47,12.47 0 0 0 -9.4,7 a17.61,17.61 0 0 0 -0.92,12 c0.43000000000000005,1.7000000000000002 1.07,3.34 1.53,5 c1,3.52 1.2,7.21 2.3200000000000003,10.68 s3.43,6.87 6.93,7.91 a21.91,21.91 0 0 1 2.23,-11.29 a3.24,3.24 0 0 1 1.58,-1.7600000000000002 a3.8200000000000003,3.8200000000000003 0 0 1 1.9,0 a19,19 0 0 0 12.65,-2.56 c1.33,-0.8 3.4,-3.56 4.8100000000000005,-3.83 C788.5300021362305,312.1500003051758 792.2600021362305,314.3400003051758 794.1600021362304,314.76000030517577 z" opacity="0.1" id="svg_89"/><path d="M794.1600021362304,314.07000030517577 a10,10 0 0 0 4.16,0.26 a6.85,6.85 0 0 0 5.06,-6.53 a10,10 0 0 0 -3.85,-7.71 c-1.58,-1.32 -3.47,-2.25 -4.92,-3.72 c-1.71,-1.75 -2.6500000000000004,-4.09 -4,-6.15 a18.25,18.25 0 0 0 -9.37,-7.29 c-2.8600000000000003,-1 -6.37,-1.08 -8.57,1 c-1.13,1.07 -1.79,2.6 -3.05,3.51 c-1.83,1.3 -4.3100000000000005,0.92 -6.54,1.18 a12.47,12.47 0 0 0 -9.4,7 a17.61,17.61 0 0 0 -0.92,12 c0.43000000000000005,1.7000000000000002 1.07,3.34 1.53,5 c1,3.52 1.2,7.21 2.3200000000000003,10.68 s3.43,6.87 6.93,7.91 A21.91,21.91 0 0 1 765.7900021362304,319.9300003051758 a3.24,3.24 0 0 1 1.58,-1.7600000000000002 a3.8200000000000003,3.8200000000000003 0 0 1 1.9,0 a19,19 0 0 0 12.65,-2.56 c1.33,-0.8 3.4,-3.56 4.8100000000000005,-3.83 C788.5300021362305,311.46000030517575 792.2600021362305,313.6500003051758 794.1600021362304,314.07000030517577 z" fill="#503f43" id="svg_90" class=""/><path d="M980.5100021362305,252.4200003051758 l-15.24,170.7 l-68.5,19 l-68.31,-19 L813.2400021362305,252.4200003051758 H980.5100021362305 z" fill="#e44d26" id="svg_91"/><path d="M896.8700021362305,427.60000030517574 l55.35,-15.34 l13,-145.88 H896.8700021362305 z" fill="#f16529" id="svg_92"/><path d="M867.2500021362305,308.26000030517577 h29.62 V287.32000030517577 H844.3700021362305 l0.5,5.62 l5.15,57.7 h46.86 V329.70000030517576 H869.1700021362304 zM872.0100021362305,361.1100003051758 h-21 l2.93,32.88 L896.7800021362305,405.9300003051758 l0.1,0 V384.08000030517576 l-0.09000000000000002,0 l-23.32,-6.3 L872.0100021362305,361.1100003051758 z" fill="#ebebeb" id="svg_93"/><path d="M828.8100021362304,206.02000030517576 h10.64 V216.5300003051758 h9.73 V206.02000030517576 h10.64 v31.84 H849.1800021362304 V227.20000030517576 h-9.73 v10.66 H828.8100021362304 V206.02000030517576 zm45,10.56 h-9.37 V206.02000030517576 h29.38 v10.56 h-9.37 v21.28 H873.8200021362304 V216.58000030517576 h0 zm24.68,-10.56 h11.1 l6.83,11.19 l6.82,-11.19 h11.1 v31.84 h-10.6 V222.08000030517576 l-7.32,11.32 h-0.18000000000000002 l-7.33,-11.32 v15.78 H898.4900021362305 zm41.14,0 h10.64 V227.33000030517576 h15 v10.52 h-25.61 V206.02000030517576 z" id="svg_94"/><path d="M896.8000021362304,350.64000030517576 h25.78 l-2.43,27.16 l-23.35,6.3 V405.9300003051758 l42.93,-11.9 l0.31000000000000005,-3.54 l4.92,-55.13 l0.51,-5.62 H896.8000021362304 v20.94 zm0,-42.43 v0.05000000000000001 h50.58 l0.42000000000000004,-4.71 l1,-10.620000000000001 l0.5,-5.62 H896.8000021362304 v20.89 z" fill="#fff" id="svg_95"/><path d="M366.7300021362305,378.4400003051758 c-1.9500000000000002,-5.71 -4.76,-13 -7,-14.66 a2.09,2.09 0 0 0 -0.44000000000000006,-0.27 H359.01000213623047 v-7.05 l-5.26,0.8400000000000001 a50.27,50.27 0 0 1 -1.9100000000000001,-7.8100000000000005 a3.63,3.63 0 0 0 3.95,0.79 c-0.09000000000000002,-0.14 -0.16000000000000003,-0.29000000000000004 -0.24000000000000002,-0.44000000000000006 l0.24000000000000002,-0.1 a9.77,9.77 0 0 1 -1.27,-4.79 a17.44,17.44 0 0 1 0.7300000000000001,-4.52 c0.9400000000000001,-3.25 2.5300000000000002,-6.29 3.42,-9.55 a23.22,23.22 0 0 0 0.8,-6.46 A23.54,23.54 0 0 0 357.01000213623047,313.77000030517576 a6.22,6.22 0 0 0 -1.86,-2.43 a24,24 0 0 0 -2.2800000000000002,-1.11 a12.31,12.31 0 0 1 -3.31,-3.3 a29.74,29.74 0 0 0 -14.37,-9.59 a8.41,8.41 0 0 0 -4.59,-0.36000000000000004 c-3.5300000000000002,1 -4.82,5.33 -7.68,7.62 c-2.5300000000000002,2 -6,2.23 -9.16,2.91 a15.58,15.58 0 0 0 -8.53,4.47 a9.26,9.26 0 0 0 -2.29,6.18 a6.21,6.21 0 0 0 2.5300000000000002,5.52 a7.93,7.93 0 0 0 6.7,0.9500000000000001 a22.79,22.79 0 0 0 17.25,28.65 l0.6200000000000001,1.1 h0 a47.19,47.19 0 0 1 4.27,11.17 c-4.84,2.75 -10.13,5.32 -13.32,5.5600000000000005 a22.45,22.45 0 0 1 -0.6900000000000002,3.6900000000000004 a20.37,20.37 0 0 1 -4.19,8.25 c-4.34,4.88 -23.87,41.78 -23.87,41.78 s-0.6200000000000001,1.47 -1.62,4 c-12.13,1.49 -31.92,3.64 -37.45,2.5300000000000002 l-21.7,-20.62 s-7,5.35 -6.4,11.85 l-3.91,-3.72 s-20.62,15.73 11.94,26 l49.54,5.75 c-4.72,14.24 -9.12,30.81 -7.76,39.83 h0.41000000000000003 a18.73,18.73 0 0 0 2.83,-0.22000000000000003 l-0.09000000000000002,1.6 l-4.77,85.43 s-1.09,15.73 13.56,22.79 c0,0 17.91,52.63 10.85,58.6 c0,0 0.8400000000000001,0.44000000000000006 2.25,1.06 l-14.73,13 s-10.85,2.71 -16.82,2.17 a4.3100000000000005,4.3100000000000005 0 0 0 -4.76,3.21 c0,0.11000000000000001 0,0.22000000000000003 -0.06000000000000001,0.3400000000000001 l0,0.14 c0,0.11000000000000001 0,0.23 0,0.35000000000000003 s0,0.09000000000000002 0,0.13 s0,0.2 0,0.30000000000000004 l0,0.13 c0,0.12000000000000001 0,0.23 0.07,0.35000000000000003 l0,0.13 q0.05000000000000001,0.19000000000000003 0.12000000000000001,0.37000000000000005 l0,0.12000000000000001 c0.05000000000000001,0.12000000000000001 0.11000000000000001,0.24000000000000002 0.17,0.36000000000000004 l0,0.08000000000000002 c0.07,0.12000000000000001 0.14,0.24000000000000002 0.22000000000000003,0.36000000000000004 l0.07,0.1 q0.13,0.19000000000000003 0.29000000000000004,0.38000000000000006 l0.08000000000000002,0.1 c0.11000000000000001,0.13 0.23,0.25 0.36000000000000004,0.38000000000000006 l0.06000000000000001,0 l0.4,0.3400000000000001 l0.09000000000000002,0.07 l0.49000000000000005,0.35000000000000003 l0.12000000000000001,0.08000000000000002 l0.5700000000000001,0.33000000000000007 l0.09000000000000002,0 l0.6100000000000001,0.30000000000000004 l0.09000000000000002,0 l0.7100000000000001,0.29000000000000004 l0.15000000000000002,0.06000000000000001 l0.79,0.26 l0.13,0 l0.8500000000000001,0.22000000000000003 l0.07,0 l1,0.19000000000000003 l0.19000000000000003,0 l1,0.15000000000000002 l0.19000000000000003,0 l1.15,0.11000000000000001 c2.23,0.17 5.24,0.23 8.72,0.22000000000000003 h0 s0,0.09000000000000002 0,0.13 s0,0.2 0,0.30000000000000004 l0,0.13 c0,0.12000000000000001 0,0.23 0.07,0.35000000000000003 l0,0.13 q0.05000000000000001,0.19000000000000003 0.12000000000000001,0.37000000000000005 l0,0.12000000000000001 c0.05000000000000001,0.12000000000000001 0.11000000000000001,0.24000000000000002 0.17,0.36000000000000004 l0,0.08000000000000002 c0.07,0.12000000000000001 0.14,0.24000000000000002 0.22000000000000003,0.36000000000000004 l0.07,0.1 q0.13,0.19000000000000003 0.29000000000000004,0.38000000000000006 l0.08000000000000002,0.1 c0.11000000000000001,0.13 0.23,0.25 0.36000000000000004,0.38000000000000006 l0.05000000000000001,0 l0.4,0.3400000000000001 l0.09000000000000002,0.07 l0.49000000000000005,0.35000000000000003 l0.12000000000000001,0.08000000000000002 l0.56,0.33000000000000007 l0.09000000000000002,0 l0.6100000000000001,0.30000000000000004 l0.09000000000000002,0 l0.7100000000000001,0.29000000000000004 l0.15000000000000002,0.06000000000000001 l0.79,0.26 l0.13,0 l0.8500000000000001,0.22000000000000003 l0.07,0 l1,0.19000000000000003 l0.19000000000000003,0 l1,0.15000000000000002 l0.19000000000000003,0 l1.15,0.11000000000000001 c14.11,1.09 59.14,-2.17 59.14,-2.17 l0,-0.13 v0 l0,-0.16000000000000003 v0 c0.45,-2.1 2.6100000000000003,-14.31 -5.07,-23.34 c0.23,-0.24000000000000002 0.45,-0.49000000000000005 0.6600000000000001,-0.7500000000000001 c0,0 -6,-10.31 -2.71,-13.56 S328.64000213623046,591.9300003051758 328.64000213623046,591.9300003051758 s-10.31,-16.28 -4.34,-34.73 s-0.54,-38.52 -0.54,-38.52 S338.01000213623047,514.4600003051758 338.27000213623046,496.9300003051758 c0,-0.53 0,-1.08 0,-1.6300000000000001 a5.76,5.76 0 0 0 0.9,0.06000000000000001 a4.21,4.21 0 0 0 0.6000000000000001,0 s-2.71,-9.77 0.54,-16.82 s10.31,-0.54 16.82,-29.3 c4.71,-20.81 8.85,-44.74 10.79,-56.39 A29.69,29.69 0 0 0 366.7300021362305,378.4400003051758 zm-123.82,61 l-4.95,-4.7 c1.6400000000000001,0.6800000000000002 3.46,1.34 5.49,2 L262.10000213623044,438.9300003051758 C253.78000213623045,439.6800003051758 246.01000213623047,440.10000030517574 242.91000213623045,439.47000030517574 z" fill="url(#016d359d-0d48-4404-968f-1612e9b5c7a7)" id="svg_96"/><path d="M290.14000213623046,436.70000030517576 s-38.38,5.33 -46.38,3.73 l-21.32,-20.26 s-20.26,15.46 11.73,25.59 l59.7,6.93 z" fill="#fdc2cc" id="svg_97"/><path d="M290.14000213623046,436.70000030517576 s-38.38,5.33 -46.38,3.73 l-21.32,-20.26 s-20.26,15.46 11.73,25.59 l59.7,6.93 z" opacity="0.05" id="svg_98"/><path d="M215.01000213623047,450.1500003051758 l-82.94,-23 l-18.48,-207.3 H316.6800021362305 l-18.5,207.27 L215.01000213623047,450.1500003051758 z" fill="#264de4" id="svg_99"/><path d="M282.34000213623045,413.9300003051758 l15.81,-177.12 h-83 V432.5200003051758 L282.34000213623045,413.9300003051758 z" fill="#2965f1" id="svg_100"/><path d="M156.01000213623047,313.6600003051758 l2.2800000000000002,25.42 h56.9 V313.6600003051758 zm-4.58,-51.46 l2.31,25.42 h61.44 V262.20000030517576 H151.38000213623047 zm63.75,117.49 l-0.11000000000000001,0 l-28.32,-7.65 l-1.81,-20.28 H159.37000213623048 l3.56,39.92 L215.01000213623047,406.1700003051758 l0.12000000000000001,0 z" fill="#ebebeb" id="svg_101"/><path d="M161.39000213623046,163.49000030517578 h30.79 v12.88 H174.26000213623047 v12.88 h17.92 v12.88 H161.39000213623046 zm37,0 h30.79 v11.2 H211.22000213623045 V176.93000030517578 h17.92 v25.76 H198.34000213623045 V190.93000030517578 h17.92 v-2.24 H198.34000213623045 V163.49000030517578 zm37,0 h30.79 v11.2 H248.1700021362305 V176.93000030517578 h17.92 v25.76 H235.29000213623044 V190.93000030517578 H253.21000213623046 v-2.24 H235.29000213623044 V163.49000030517578 z" id="svg_102"/><path d="M274.15000213623046,313.6600003051758 l4.59,-51.46 H215.01000213623047 v25.42 h35.83 l-2.31,26 H215.01000213623047 v25.42 h31.31 l-3,33 L215.01000213623047,379.71000030517575 v26.45 l52.12,-14.45 l0.38000000000000006,-4.3 l6,-66.94 l0.6200000000000001,-6.83 z" fill="#fff" id="svg_103"/><path d="M304.01000213623047,653.1200003051758 l-18.66,16.52 s-10.66,2.67 -16.52,2.13 s-8.53,9.06 5.33,10.13 s58.1,-2.13 58.1,-2.13 s4.26,-17.06 -8.53,-26.65 z" fill="#47465a" id="svg_104"/><path d="M304.01000213623047,653.1200003051758 l-18.66,16.52 s-10.66,2.67 -16.52,2.13 s-8.53,9.06 5.33,10.13 s58.1,-2.13 58.1,-2.13 s4.26,-17.06 -8.53,-26.65 z" opacity="0.85" id="svg_105" class="" fill="#000000" fill-opacity="1"/><path d="M332.9200021362305,672.4000003051758 a29.4,29.4 0 0 1 -0.6700000000000002,5.78 s-44.24,3.2 -58.1,2.13 c-6.67,-0.51 -9.5,-3 -10,-5.38 c-0.6100000000000001,2.74 1.81,6.35 10,7 c13.86,1.07 58.1,-2.13 58.1,-2.13 A30.8,30.8 0 0 0 332.9200021362305,672.4000003051758 z" fill="#fff" opacity="0.3" id="svg_106"/><path d="M325.85000213623044,350.9300003051758 s11.73,16.52 7.46,27.72 s22.39,-11.73 22.39,-11.73 S347.1700021362305,351.9300003051758 351.4400021362305,335.9300003051758 z" fill="#fdc2cc" id="svg_107"/><path d="M322.65000213623046,659.5200003051758 L304.01000213623047,676.0400003051758 s-10.66,2.67 -16.52,2.13 s-8.53,9.06 5.33,10.13 s58.1,-2.13 58.1,-2.13 s4.26,-17.06 -8.53,-26.65 z" fill="#000000" id="svg_108" class="" fill-opacity="1"/><path d="M328.01000213623047,655.7900003051758 c-2.7800000000000002,3.43 -6.7,4.75 -10.8,4.95 c-9.32,0.44000000000000006 -19.58,-4.95 -19.58,-4.95 c6.93,-5.86 -10.66,-57.57 -10.66,-57.57 c-14.39,-6.93 -13.33,-22.39 -13.33,-22.39 L278.3000021362305,491.9300003051758 l1.18,-21.08 l14.93,-9.06 l11.76,9 l11.16,8.56 a44.86,44.86 0 0 1 1.4,8.32 c1.3,19.59 -14.19,24.2 -14.19,24.2 s6.4,19.72 0.53,37.85 s4.26,34.12 4.26,34.12 s19.19,55.44 16,58.64 S328.01000213623047,655.7900003051758 328.01000213623047,655.7900003051758 z" fill="#565171" id="svg_109"/><path d="M328.01000213623047,655.7900003051758 c-2.7800000000000002,3.43 -6.7,4.75 -10.8,4.95 c-9.32,0.44000000000000006 -19.58,-4.95 -19.58,-4.95 c6.93,-5.86 -10.66,-57.57 -10.66,-57.57 c-14.39,-6.93 -13.33,-22.39 -13.33,-22.39 L278.3000021362305,491.9300003051758 l1.18,-21.08 l14.93,-9.06 l11.76,9 l11.16,8.56 a44.86,44.86 0 0 1 1.4,8.32 c1.3,19.59 -14.19,24.2 -14.19,24.2 s6.4,19.72 0.53,37.85 s4.26,34.12 4.26,34.12 s19.19,55.44 16,58.64 S328.01000213623047,655.7900003051758 328.01000213623047,655.7900003051758 z" opacity="0.9" id="svg_110" class="" fill="#000000" fill-opacity="1"/><path d="M346.64000213623046,662.1800003051758 c-9.06,11.19 -30.38,0 -30.38,0 a3.4,3.4 0 0 0 0.93,-1.45 c3.91,-10.63 -13.19,-61.45 -13.19,-61.45 c-14.39,-6.93 -16,-23.45 -16,-23.45 l-3.77,-85.42 l-0.49000000000000005,-11.06 l22.43,-8.56 l6.890000000000001,-2.63 L336.01000213623047,485.75000030517583 A41.57,41.57 0 0 1 337.45000213623047,496.9300003051758 c-0.29000000000000004,17.21 -14.26,21.37 -14.26,21.37 s6.4,19.72 0.53,37.85 S328.01000213623047,590.2200003051757 328.01000213623047,590.2200003051757 s19.19,55.44 16,58.64 S346.64000213623046,662.1800003051758 346.64000213623046,662.1800003051758 z" fill="#000000" id="svg_111" class="" fill-opacity="1"/><path d="M337.45000213623047,496.9300003051758 c-4.61,-0.6600000000000001 -13.94,-6.21 -18.73,-9.22 c-1.83,-1.15 -3,-1.92 -3,-1.92 s-4.8,-13.33 -17.59,-3.2 a47.89,47.89 0 0 1 -13.9,7.86 a32.52,32.52 0 0 1 -5.93,1.49 l1.18,-21.08 l14.93,-9.06 l11.76,9 l6.890000000000001,-2.63 L336.01000213623047,485.75000030517583 A41.57,41.57 0 0 1 337.45000213623047,496.9300003051758 z" opacity="0.1" id="svg_112"/><path d="M366.3000021362305,394.64000030517576 c-1.9,11.44 -6,35 -10.6,55.39 c-6.4,28.25 -13.33,21.85 -16.52,28.78 s-0.53,16.52 -0.53,16.52 c-5.33,0.53 -22.92,-11.19 -22.92,-11.19 s-4.8,-13.33 -17.59,-3.2 s-22.92,9.59 -22.92,9.59 c-2.67,-17.59 17.06,-64.5 17.06,-64.5 s19.19,-36.25 23.45,-41 a20,20 0 0 0 4.12,-8.1 a22.05,22.05 0 0 0 0.6800000000000002,-3.62 c6.93,-0.53 24,-12.26 24,-12.26 l13.33,-2.13 v6.93 a2,2 0 0 1 0.44000000000000006,0.27 c2.19,1.6700000000000002 5,8.79 6.87,14.4 A29.17,29.17 0 0 1 366.3000021362305,394.64000030517576 z" fill="#1a1aeb" id="svg_113" class="" stroke-opacity="1" stroke="#1a1aeb" fill-opacity="1"/><path d="M304.01000213623047,444.70000030517576 l-6.890000000000001,-0.8 l-52.81,-6.13 c-32,-10.13 -11.73,-25.59 -11.73,-25.59 l21.32,20.26 c6.15,1.23 30.28,-1.6400000000000001 41.09,-3 c3.24,-0.42000000000000004 5.29,-0.7000000000000001 5.29,-0.7000000000000001 z" fill="#fdc2cc" id="svg_114"/><path d="M355.70000213623047,372.7400003051758 S341.84000213623045,361.5500003051758 321.01000213623047,397.7900003051758 s-25.59,30.38 -25.59,30.38 s4.26,16 2.13,19.19 c0,0 14.39,-1.07 19.72,0 s38.38,-40.51 38.38,-40.51 S372.76000213623047,383.4000003051758 355.70000213623047,372.7400003051758 z" opacity="0.1" id="svg_115"/><path d="M355.1700021362305,370.6100003051758 s-13.86,-11.19 -34.65,25.05 s-25.59,30.38 -25.59,30.38 s16.52,18.12 21.85,19.19 s38.38,-40.51 38.38,-40.51 S372.2300021362305,381.27000030517576 355.1700021362305,370.6100003051758 z" opacity="0.1" id="svg_116"/><path d="M297.1100021362305,443.9300003051758 c0.22000000000000003,-3.95 -1.27,-10.89 -2.13,-14.49 c3.24,-0.42000000000000004 5.29,-0.7000000000000001 5.29,-0.7000000000000001 l3.73,16 z" opacity="0.1" id="svg_117"/><path d="M355.70000213623047,371.6700003051758 S341.84000213623045,360.4800003051758 321.01000213623047,396.7300003051758 s-25.59,30.38 -25.59,30.38 s4.26,16 2.13,19.19 c0,0 14.39,-1.07 19.72,0 s38.38,-40.51 38.38,-40.51 S372.76000213623047,382.33000030517576 355.70000213623047,371.6700003051758 z" fill="#1a1aeb" id="svg_118" class="" fill-opacity="1" stroke="#1a1aeb" stroke-opacity="1"/><path d="M352.01000213623047,337.02000030517576 L326.3800021362305,351.9300003051758 a54.69,54.69 0 0 1 3,4.88 a22.49,22.49 0 0 0 4.48,0.45 c6.83,0 10,-7.17 14.13,-12 C347.6900021362305,341.4200003051758 350.83000213623046,341.32000030517577 352.01000213623047,337.02000030517576 z" opacity="0.1" id="svg_119"/><circle cx="333.30999755859375" cy="333.8299865722656" r="22.389999389648438" fill="#fdc2cc" id="svg_120"/><path d="M305.01000213623047,315.7200003051758 a15.3,15.3 0 0 1 8.38,-4.4 c3.11,-0.6700000000000002 6.52,-0.8700000000000001 9,-2.8600000000000003 c2.81,-2.25 4.07,-6.53 7.54,-7.49 a8.27,8.27 0 0 1 4.51,0.36000000000000004 a29.21,29.21 0 0 1 14.12,9.42 a12.09,12.09 0 0 0 3.26,3.25 a23.6,23.6 0 0 1 2.24,1.09 a6.11,6.11 0 0 1 1.82,2.39 a23.18,23.18 0 0 1 1.62,16.27 c-0.8700000000000001,3.21 -2.43,6.19 -3.36,9.39 s-1.1600000000000001,6.82 0.53,9.68 c-1.6400000000000001,0.8400000000000001 -3.71,-0.22000000000000003 -4.74,-1.75 s-1.34,-3.41 -1.8800000000000001,-5.18 a19.75,19.75 0 0 0 -5.78,-9 c-1.6800000000000002,-1.48 -4.68,-2.48 -5.85,-0.5700000000000001 c-0.45,0.7400000000000001 -0.42000000000000004,1.6900000000000002 -0.81,2.46 c-0.7600000000000001,1.51 -3,1.81 -4.43,1 a6.79,6.79 0 0 1 -2.77,-4.11 c-2.19,-7.43 -5.94,-12.1 -13.88,-8.93 c-3,1.18 -6.45,2 -9.3,0 C301.58000213623046,324.0600003051758 302.3100021362305,318.7500003051758 305.01000213623047,315.7200003051758 z" opacity="0.1" id="svg_121"/><path d="M305.01000213623047,315.1800003051758 a15.3,15.3 0 0 1 8.38,-4.4 c3.11,-0.6700000000000002 6.52,-0.8700000000000001 9,-2.8600000000000003 c2.81,-2.25 4.07,-6.53 7.54,-7.49 a8.27,8.27 0 0 1 4.51,0.36000000000000004 a29.21,29.21 0 0 1 14.12,9.42 a12.09,12.09 0 0 0 3.26,3.25 a23.6,23.6 0 0 1 2.24,1.09 a6.11,6.11 0 0 1 1.82,2.39 a23.18,23.18 0 0 1 1.62,16.27 c-0.8700000000000001,3.21 -2.43,6.19 -3.36,9.39 s-1.1600000000000001,6.82 0.53,9.68 c-1.6400000000000001,0.8400000000000001 -3.71,-0.22000000000000003 -4.74,-1.75 s-1.34,-3.41 -1.8800000000000001,-5.18 a19.75,19.75 0 0 0 -5.78,-9 c-1.6800000000000002,-1.48 -4.68,-2.48 -5.85,-0.5700000000000001 c-0.45,0.7400000000000001 -0.42000000000000004,1.6900000000000002 -0.81,2.46 c-0.7600000000000001,1.51 -3,1.81 -4.43,1 a6.79,6.79 0 0 1 -2.77,-4.11 c-2.19,-7.43 -5.94,-12.1 -13.88,-8.93 c-3,1.18 -6.45,2 -9.3,0 C301.58000213623046,323.5300003051758 302.3100021362305,318.2200003051758 305.01000213623047,315.1800003051758 z" fill="#8f5a6a" id="svg_122"/><path d="M358.27000213623046,366.08000030517576 H347.4400021362305 s-21.32,10.66 -21.85,10.13 c-0.36000000000000004,-0.36000000000000004 -3.66,0.26 -5.75,0.6900000000000002 a22.05,22.05 0 0 0 0.6800000000000002,-3.62 c6.93,-0.53 24,-12.26 24,-12.26 l13.33,-2.13 v6.93 A2,2 0 0 1 358.27000213623046,366.08000030517576 z" opacity="0.05" id="svg_123"/><path d="M351.57000213623047,678.7900003051758 a29.4,29.4 0 0 1 -0.6700000000000002,5.78 s-44.24,3.2 -58.1,2.13 c-6.67,-0.51 -9.5,-3 -10,-5.38 c-0.6100000000000001,2.74 1.81,6.35 10,7 c13.86,1.07 58.1,-2.13 58.1,-2.13 A30.8,30.8 0 0 0 351.57000213623047,678.7900003051758 z" fill="#fff" opacity="0.3" id="svg_124"/><g opacity="0.05" id="svg_125"><path d="M293.07000213623047,480.4100003051758 c-7.19,5.7 -13.55,8 -17.73,9 c0,0.4 0.08000000000000002,0.79 0.14,1.17 c0,0 10.13,0.53 22.92,-9.59 a17.18,17.18 0 0 1 6.85,-3.58 C302.46000213623046,476.0400003051758 298.4800021362305,476.1300003051758 293.07000213623047,480.4100003051758 z" id="svg_126"/><path d="M365.41000213623045,380.4700003051758 c-1.9100000000000001,-5.61 -4.68,-12.72 -6.87,-14.4 a2,2 0 0 0 -0.44000000000000006,-0.27 s-4.41,0.15000000000000002 -4.26,0.27 c2.19,1.6700000000000002 4.33,8.26 6.24,13.86 a29.17,29.17 0 0 1 1.1600000000000001,14.16 c-1.9,11.44 -6,35 -10.6,55.39 c-6.4,28.25 -13.33,21.85 -16.52,28.78 c-2.62,5.68 -1.31,13.14 -0.7400000000000001,15.65 a13.41,13.41 0 0 0 5.54,1.4100000000000001 s-2.67,-9.59 0.53,-16.52 s10.13,-0.53 16.52,-28.78 c4.63,-20.44 8.7,-44 10.6,-55.39 A29.17,29.17 0 0 0 365.41000213623045,380.4700003051758 z" id="svg_127"/></g><path d="M427.3600021362305,480.0400003051758 a11.67,11.67 0 0 0 3.83,-5.78 c0.5,-2.3 -0.48000000000000004,-5.05 -2.68,-5.890000000000001 c-2.46,-0.9400000000000001 -5.09,0.7600000000000001 -7.08,2.49 s-4.28,3.6900000000000004 -6.890000000000001,3.3200000000000003 a10.48,10.48 0 0 0 3.24,-9.81 a4.1,4.1 0 0 0 -0.9,-2 c-1.37,-1.46 -3.84,-0.8300000000000001 -5.48,0.32000000000000006 c-5.2,3.66 -6.65,10.72 -6.68,17.08 c-0.52,-2.29 -0.08000000000000002,-4.68 -0.1,-7 s-0.6600000000000001,-5 -2.64,-6.22 a8,8 0 0 0 -4,-0.9500000000000001 c-2.34,-0.09000000000000002 -4.94,0.15000000000000002 -6.54,1.86 c-2,2.12 -1.47,5.69 0.26,8 s4.35,3.8 6.77,5.42 a15,15 0 0 1 4.84,4.61 a4.57,4.57 0 0 1 0.36000000000000004,0.8200000000000001 h14.65 A40.83,40.83 0 0 0 427.3600021362305,480.0400003051758 z" fill="#0d6efd" id="svg_128"/><path d="M454.27000213623046,667.8100003051758 c2.33,-2.17 4.52,-4.73 5.2,-7.84 s-0.6500000000000001,-6.85 -3.63,-8 c-3.33,-1.28 -6.9,1 -9.6,3.37 s-5.8,5 -9.33,4.5 a14.21,14.21 0 0 0 4.39,-13.3 a5.5600000000000005,5.5600000000000005 0 0 0 -1.22,-2.7 c-1.85,-2 -5.21,-1.13 -7.42,0.43000000000000005 c-7,5 -9,14.53 -9.05,23.15 c-0.7100000000000001,-3.11 -0.11000000000000001,-6.35 -0.13,-9.54 s-0.8900000000000001,-6.72 -3.58,-8.44 a10.79,10.79 0 0 0 -5.46,-1.28 c-3.17,-0.12000000000000001 -6.7,0.2 -8.86,2.52 c-2.6900000000000004,2.88 -2,7.71 0.35000000000000003,10.88 s5.9,5.16 9.17,7.35 a20.34,20.34 0 0 1 6.55,6.25 a6.19,6.19 0 0 1 0.49000000000000005,1.12 H442.01000213623047 A55.36,55.36 0 0 0 454.27000213623046,667.8100003051758 z" fill="#0d6efd" id="svg_129"/></g></svg>